<svg width="98" height="88" viewBox="0 0 440 128" fill="none" xmlns="http://www.w3.org/2000/svg">
<g clip-path="url(#clip0_601_5)">
<path d="M2.86293 99.3323V50.3822H63.9799V47.5189H2.86293V2.86239H67.844V0H0.000535965V102.195H68.4161V99.3323H2.86293ZM123.522 28.6256L98.1886 61.9752L73.4261 28.6265H69.7047L96.4704 64.1228L67.1275 102.194H70.5629L98.1868 66.2679L125.954 102.194H129.532L100.048 64.1211L126.956 28.6248H123.521L123.522 28.6256ZM138.121 127.386V81.585H138.407C140.125 88.2642 143.513 93.6316 148.57 97.6872C153.627 101.742 160.068 103.77 167.892 103.77C172.949 103.77 177.434 102.744 181.346 100.693C185.259 98.6416 188.526 95.8505 191.151 92.3198C193.774 88.7891 195.779 84.6862 197.163 80.0103C198.546 75.3353 199.238 70.4206 199.238 65.2688C199.238 59.7339 198.522 54.6285 197.09 49.9535C195.659 45.2776 193.584 41.222 190.865 37.7875C188.145 34.3521 184.853 31.6796 180.988 29.7725C177.124 27.8636 172.758 26.9092 167.892 26.9092C164.17 26.9092 160.712 27.4581 157.515 28.5552C154.319 29.653 151.48 31.2028 148.999 33.207C146.504 35.2266 144.332 37.6157 142.558 40.2917C140.746 43.0114 139.362 45.9932 138.407 49.2379H138.121V28.6256H135.259V127.386H138.121ZM167.892 101.05C158.923 101.05 151.718 97.9724 146.28 91.8181C140.841 85.6638 138.121 76.8129 138.121 65.2671C138.121 60.4959 138.789 55.9635 140.125 51.6699C141.461 47.3763 143.393 43.6068 145.921 40.363C148.45 37.1183 151.576 34.542 155.296 32.634C159.018 30.7252 163.217 29.7707 167.892 29.7707C172.663 29.7707 176.838 30.7252 180.416 32.634C183.994 34.542 186.953 37.1423 189.29 40.4343C191.628 43.7262 193.393 47.4957 194.586 51.7412C195.779 55.9875 196.375 60.4959 196.375 65.2671C196.375 69.5616 195.827 73.8319 194.729 78.0774C193.632 82.3238 191.938 86.1406 189.648 89.5287C187.358 92.9151 184.424 95.6821 180.846 97.8298C177.267 99.9766 172.949 101.05 167.892 101.05ZM214.982 102.195V60.544C214.982 56.5365 215.554 52.6235 216.7 48.8075C217.845 44.9907 219.61 41.6266 221.995 38.717C224.381 35.8065 227.41 33.5162 231.084 31.8462C234.758 30.1762 239.123 29.4847 244.181 29.7707V26.9083C239.791 26.8139 235.951 27.2898 232.659 28.3395C229.366 29.3893 226.528 30.8205 224.142 32.634C221.757 34.4466 219.849 36.5693 218.418 39.0031C216.987 41.4329 215.926 44.0617 215.268 46.8033H214.982V28.6256H212.12V102.196L214.982 102.195ZM247.759 65.9827H309.304C309.496 60.9254 308.995 56.0597 307.802 51.3838C306.609 46.708 304.701 42.557 302.077 38.9318C299.453 35.3057 296.065 32.3952 291.914 30.2003C287.763 28.0054 282.826 26.9083 277.101 26.9083C272.997 26.9083 268.99 27.7674 265.077 29.4855C261.165 31.2028 257.73 33.707 254.772 36.9989C251.814 40.2908 249.429 44.3224 247.616 49.0944C245.803 53.8648 244.896 59.3035 244.896 65.4106C244.896 70.8493 245.517 75.9306 246.757 80.6537C247.998 85.3769 249.905 89.4806 252.482 92.9632C255.059 96.4458 258.375 99.1416 262.43 101.05C266.485 102.958 271.375 103.865 277.101 103.769C285.497 103.769 292.559 101.407 298.283 96.6847C304.009 91.9607 307.396 85.3056 308.446 76.7175H305.584C304.343 84.8288 301.17 90.9118 296.065 94.9665C290.96 99.0222 284.544 101.05 276.814 101.05C271.566 101.05 267.129 100.143 263.503 98.3306C259.877 96.518 256.919 94.0362 254.629 90.8877C252.339 87.7384 250.645 84.041 249.548 79.7947C248.45 75.5492 247.854 70.9446 247.759 65.9827ZM306.442 63.1203H247.76C248.045 57.9677 248.999 53.3399 250.621 49.237C252.244 45.1333 254.367 41.6266 256.991 38.717C259.615 35.8065 262.669 33.5884 266.151 32.061C269.634 30.5344 273.379 29.7707 277.387 29.7707C282.158 29.7707 286.355 30.6539 289.982 32.4192C293.608 34.1846 296.638 36.5943 299.071 39.6474C301.504 42.7005 303.341 46.2552 304.581 50.31C305.822 54.3656 306.442 58.636 306.442 63.1203ZM368.704 50.3822H371.566C371.566 42.1756 369.181 36.212 364.411 32.4905C359.638 28.7691 353.15 26.9083 344.944 26.9083C340.364 26.9083 336.5 27.4813 333.35 28.6265C330.202 29.7707 327.626 31.25 325.621 33.0627C323.618 34.8753 322.187 36.8795 321.328 39.0744C320.469 41.2693 320.039 43.3688 320.039 45.3721C320.039 49.3797 320.755 52.5762 322.187 54.9618C323.618 57.3474 325.86 59.2082 328.913 60.544C331.013 61.4976 333.398 62.3566 336.07 63.1212C338.742 63.884 341.843 64.695 345.374 65.5532C348.522 66.3177 351.623 67.0806 354.677 67.8434C357.73 68.6071 360.426 69.6329 362.764 70.9206C365.102 72.2092 367.01 73.8551 368.489 75.8593C369.968 77.8627 370.707 80.4871 370.707 83.7309C370.707 86.8802 369.969 89.5519 368.489 91.7459C367.023 93.9294 365.092 95.7624 362.836 97.1142C360.546 98.4973 357.992 99.499 355.178 100.119C352.363 100.739 349.62 101.05 346.948 101.05C338.265 101.05 331.609 99.1175 326.981 95.2535C322.354 91.3886 320.04 85.3056 320.04 77.0036H317.177C317.177 86.26 319.682 93.0345 324.691 97.329C329.701 101.623 337.12 103.769 346.948 103.769C350.097 103.769 353.269 103.411 356.467 102.696C359.663 101.98 362.526 100.812 365.054 99.1888C367.561 97.5891 369.666 95.4347 371.208 92.8919C372.783 90.3147 373.571 87.1663 373.571 83.4448C373.571 79.9141 372.878 77.0517 371.495 74.8568C370.111 72.6628 368.299 70.8493 366.056 69.4181C363.813 67.9869 361.285 66.8658 358.47 66.0549C355.639 65.2391 352.8 64.4516 349.953 63.6925C346.45 62.7733 342.943 61.867 339.433 60.9735C336.428 60.2098 333.637 59.3035 331.061 58.2537C328.58 57.204 326.6 55.7015 325.121 53.7454C323.641 51.7893 322.902 48.9982 322.902 45.3721C322.902 44.7046 323.093 43.5114 323.475 41.7941C323.856 40.076 324.763 38.3347 326.194 36.5693C327.626 34.8048 329.82 33.2302 332.778 31.8462C335.736 30.4631 339.792 29.7707 344.944 29.7707C348.475 29.7707 351.695 30.153 354.605 30.9159C357.516 31.6796 360.021 32.896 362.119 34.566C364.219 36.236 365.841 38.3588 366.986 40.9351C368.131 43.5123 368.704 46.6607 368.704 50.3822ZM434.973 50.3822H437.835C437.835 42.1756 435.451 36.212 430.679 32.4905C425.908 28.7691 419.42 26.9083 411.213 26.9083C406.633 26.9083 402.768 27.4813 399.62 28.6265C396.471 29.7707 393.894 31.25 391.891 33.0627C389.887 34.8753 388.456 36.8795 387.597 39.0744C386.738 41.2693 386.309 43.3688 386.309 45.3721C386.309 49.3797 387.024 52.5762 388.456 54.9618C389.887 57.3474 392.13 59.2082 395.183 60.544C397.282 61.4976 399.667 62.3566 402.339 63.1212C405.011 63.884 408.112 64.695 411.643 65.5532C414.792 66.3177 417.893 67.0806 420.946 67.8434C424 68.6071 426.695 69.6329 429.033 70.9206C431.371 72.2092 433.28 73.8551 434.758 75.8593C436.237 77.8627 436.977 80.4871 436.977 83.7309C436.977 86.8802 436.237 89.5519 434.758 91.7459C433.292 93.9293 431.362 95.7623 429.106 97.1142C426.814 98.4973 424.262 99.499 421.447 100.119C418.633 100.739 415.889 101.05 413.217 101.05C404.534 101.05 397.879 99.1175 393.251 95.2535C388.622 91.3886 386.309 85.3056 386.309 77.0036H383.446C383.446 86.26 385.951 93.0345 390.961 97.329C395.97 101.623 403.389 103.769 413.217 103.769C416.367 103.769 419.539 103.411 422.736 102.696C425.931 101.98 428.795 100.812 431.324 99.1888C433.83 97.5891 435.936 95.4347 437.478 92.8919C439.053 90.3147 439.839 87.1663 439.839 83.4448C439.839 79.9141 439.148 77.0517 437.764 74.8568C436.381 72.6628 434.568 70.8493 432.325 69.4181C430.083 67.9869 427.554 66.8658 424.74 66.0549C421.909 65.2391 419.07 64.4516 416.223 63.6925C412.72 62.7733 409.213 61.867 405.703 60.9735C402.697 60.2098 399.906 59.3035 397.33 58.2537C394.849 57.204 392.869 55.7015 391.39 53.7454C389.911 51.7893 389.171 48.9982 389.171 45.3721C389.171 44.7046 389.362 43.5114 389.744 41.7941C390.126 40.076 391.033 38.3347 392.463 36.5693C393.894 34.8048 396.089 33.2302 399.047 31.8462C402.006 30.4631 406.06 29.7707 411.214 29.7707C414.745 29.7707 417.964 30.153 420.875 30.9159C423.785 31.6796 426.289 32.896 428.389 34.566C430.489 36.236 432.11 38.3588 433.256 40.9351C434.401 43.5123 434.974 46.6607 434.974 50.3822H434.973Z" fill="white"/>
</g>
<defs>
<clipPath id="clip0_601_5">
<rect width="439.84" height="128" fill="white"/>
</clipPath>
</defs>
</svg>
