<svg width="93" height="27" viewBox="0 0 93 27" fill="none" xmlns="http://www.w3.org/2000/svg">
<g clip-path="url(#clip0_222_35)">
<path opacity="0.54" d="M27.9145 19.9318H26.1748V6.49697H34.0757V8.14758H27.9147V12.5584H33.4719V14.1709H27.9147V19.9319L27.9145 19.9318ZM37.3468 8.43048C36.9321 8.84393 36.2809 8.90887 35.7916 8.58561C35.3023 8.26235 35.1113 7.64093 35.3355 7.10163C35.5597 6.56233 36.1365 6.25535 36.7131 6.36858C37.2897 6.4818 37.7053 6.98369 37.7057 7.56707C37.7113 7.89199 37.5808 8.20466 37.3454 8.43048H37.3468H37.3468ZM37.3468 19.9318H35.6071V10.7378H37.3468V19.9319V19.9318ZM41.1643 19.9318H39.4246V10.7378H41.0875V12.2389H41.1629C41.3637 11.7099 41.7495 11.2703 42.2498 11.0002C42.7276 10.6958 43.2801 10.527 43.8477 10.5121C44.2932 10.4995 44.7367 10.5763 45.1517 10.7378L44.4901 12.3503C44.1917 12.2517 43.8782 12.207 43.5641 12.2184C42.9262 12.2216 42.3191 12.4907 41.8909 12.9601C41.4056 13.4546 41.1629 14.102 41.1629 14.9024L41.1643 19.9319L41.1643 19.9318ZM49.9188 20.225C48.5198 20.225 47.3826 19.7623 46.5074 18.837C45.6322 17.9116 45.194 16.7442 45.193 15.3349C45.1673 14.0661 45.6228 12.8341 46.469 11.8828C47.2795 10.9359 48.4785 10.4045 49.7298 10.4372C51.1032 10.4372 52.2029 10.8814 53.0289 11.7697C53.855 12.658 54.2675 13.8464 54.2663 15.3348L54.2471 15.6543H46.9296C46.9798 16.5798 47.2918 17.3128 47.8658 17.8532C48.4026 18.3761 49.1266 18.6662 49.8785 18.6594C51.1259 18.6594 51.9702 18.134 52.4112 17.0836L53.9619 17.7212C53.6477 18.4482 53.1294 19.07 52.4689 19.5126C51.7748 19.9875 50.9246 20.225 49.9184 20.225L49.9188 20.225ZM52.4146 14.2149C52.3772 13.6891 52.1345 13.1888 51.6866 12.7138C51.2386 12.2388 50.5725 12.0063 49.6884 12.016C49.0752 12.0054 48.4796 12.2193 48.0152 12.6171C47.5288 13.0402 47.1884 13.6042 47.042 14.2295L52.4146 14.2149L52.4146 14.2149ZM60.5518 20.225C59.8936 20.238 59.2426 20.0868 58.6585 19.7853C58.1456 19.5285 57.7116 19.1397 57.4018 18.6595H57.3265V19.9319H55.6621V6.49697H57.4018V10.7378L57.3265 12.0131H57.4018C57.7116 11.5329 58.1456 11.1441 58.6585 10.8873C59.2417 10.5823 59.8927 10.4276 60.5518 10.4373C61.749 10.4373 62.7827 10.9064 63.6531 11.8446C64.5234 12.7827 64.958 13.9462 64.9571 15.3348C64.9561 16.7235 64.5224 17.887 63.6531 18.8251C62.7837 19.7633 61.75 20.2299 60.5518 20.225L60.5518 20.225ZM60.2682 18.6492C61.0607 18.6554 61.8178 18.324 62.3475 17.7389C62.9274 17.132 63.2174 16.3282 63.2174 15.3275C63.2174 14.3267 62.9274 13.523 62.3475 12.9161C61.8117 12.338 61.0571 12.0083 60.2657 12.0066C59.4743 12.0049 58.7182 12.3314 58.18 12.9073C57.607 13.5073 57.3205 14.314 57.3205 15.3274C57.3205 16.3409 57.6099 17.15 58.1888 17.755C58.7218 18.3379 59.481 18.6661 60.2741 18.6565L60.2682 18.6491L60.2682 18.6492ZM69.386 20.225C68.4014 20.225 67.5794 19.9436 66.9197 19.3807C66.2601 18.8178 65.9293 18.0736 65.9273 17.1481C65.9273 16.1474 66.3182 15.3627 67.0999 14.7939C67.8816 14.2251 68.8455 13.9408 69.9915 13.9408C71.0124 13.9408 71.8495 14.1284 72.502 14.5037V14.2413C72.527 13.6233 72.2698 13.0271 71.8021 12.6185C71.3257 12.2114 70.7128 11.9964 70.0845 12.0161C69.6037 12.0101 69.1301 12.133 68.7141 12.3723C68.3243 12.5866 68.0254 12.9332 67.8723 13.3486L66.2848 12.6728C66.4994 12.1206 66.9218 11.6085 67.5538 11.1365C68.1859 10.6645 69.0159 10.43 70.0496 10.4329C71.2311 10.4329 72.2156 10.775 73.0032 11.459C73.7908 12.1431 74.1817 13.1125 74.1758 14.3673V19.9319H72.507V18.6565H72.4317C71.7377 19.7022 70.723 20.2231 69.388 20.2231L69.386 20.225ZM69.6695 18.6492C70.4006 18.6466 71.1023 18.3635 71.6278 17.8591C72.1878 17.3904 72.5119 16.701 72.5138 15.9739C72.0216 15.5732 71.2832 15.3729 70.2986 15.3729C69.4539 15.3729 68.8174 15.5542 68.3891 15.9167C67.9895 16.2217 67.7527 16.6917 67.7467 17.1921C67.7386 17.6275 67.9634 18.0348 68.3377 18.2621C68.7311 18.5247 69.1957 18.6622 69.6697 18.6565V18.6491L69.6695 18.6492ZM79.2909 20.225C78.2571 20.225 77.4035 19.9748 76.7301 19.4745C76.075 18.9942 75.5643 18.3454 75.2533 17.5981L76.804 16.9605C77.2962 18.1117 78.1331 18.6873 79.3145 18.6873C79.7839 18.7064 80.2478 18.5821 80.6437 18.3311C80.9701 18.1299 81.1672 17.7743 81.1635 17.3929C81.1635 16.7929 80.7411 16.3863 79.8944 16.1733L78.0233 15.7233C77.4076 15.5616 76.834 15.2706 76.3412 14.8701C75.8168 14.4641 75.5211 13.8324 75.5467 13.1726C75.5467 12.3596 75.909 11.6999 76.6337 11.1937C77.3916 10.6772 78.2945 10.4114 79.2136 10.4343C79.981 10.4221 80.7377 10.614 81.4052 10.9899C82.0353 11.3451 82.5226 11.9053 82.7845 12.576L81.2737 13.1887C80.9341 12.3757 80.2282 11.9691 79.156 11.9691C78.6999 11.954 78.2486 12.0647 77.852 12.2887C77.527 12.4558 77.3231 12.7888 77.3233 13.1521C77.3233 13.6778 77.7329 14.0346 78.552 14.2222L80.3847 14.6546C81.254 14.8501 81.897 15.1921 82.3134 15.6807C82.7168 16.1372 82.9384 16.7242 82.9366 17.3313C82.9447 18.1409 82.5662 18.9064 81.9161 19.3953C81.2358 19.9484 80.3601 20.225 79.2889 20.225L79.2909 20.225ZM88.6479 20.225C87.2489 20.225 86.1117 19.7623 85.2365 18.837C84.3612 17.9116 83.923 16.7416 83.9221 15.3275C83.8964 14.0587 84.3518 12.8266 85.198 11.8753C86.0116 10.9309 87.2118 10.4023 88.4632 10.4373C89.8414 10.4373 90.9413 10.8815 91.7624 11.7698C92.5835 12.6581 92.996 13.8465 93 15.3348L92.9808 15.6544H85.6571C85.7073 16.5798 86.0194 17.3128 86.5934 17.8532C87.1317 18.3762 87.8575 18.6652 88.6107 18.6565C89.8581 18.6565 90.7024 18.131 91.1434 17.0807L92.6941 17.7183C92.38 18.4453 91.8617 19.0672 91.2011 19.5096C90.507 19.9865 89.6558 20.225 88.6477 20.225L88.6479 20.225ZM91.1437 14.2149C91.1063 13.6891 90.8636 13.1888 90.4156 12.7138C89.9676 12.2388 89.3026 12.0063 88.4205 12.016C87.8073 12.0055 87.2117 12.2195 86.7472 12.6171C86.2608 13.0402 85.9204 13.6042 85.774 14.2295L91.1437 14.2149V14.2149Z" fill="white"/>
<path d="M0.165283 20.9635L3.36421 0.494006C3.40331 0.242965 3.59855 0.0450678 3.84903 0.00251387C4.09952 -0.0400401 4.34913 0.0823868 4.4689 0.306439L7.77715 6.47682L9.0958 3.96612C9.19792 3.77199 9.39925 3.65043 9.61862 3.65043C9.838 3.65043 10.0393 3.77199 10.1414 3.96612L19.0692 20.9635H0.165283V20.9635Z" fill="#FFA000"/>
<path d="M11.2167 12.9896L7.77562 6.47363L0.165283 20.9633L11.2167 12.9896Z" fill="#F57C00"/>
<path d="M19.0693 20.9633L16.6192 5.80167C16.5822 5.58395 16.4268 5.40508 16.2163 5.33766C16.0059 5.27024 15.7756 5.32636 15.6193 5.48246L0.165283 20.9631L8.7164 25.7585C9.25339 26.0583 9.90736 26.0583 10.4443 25.7585L19.0693 20.9631V20.9633Z" fill="#FFCA28"/>
<path d="M16.6191 5.80157C16.5821 5.58384 16.4267 5.40498 16.2163 5.33756C16.0059 5.27014 15.7756 5.32626 15.6193 5.48236L12.552 8.55742L10.1401 3.96568C10.0379 3.77155 9.8366 3.65 9.61723 3.65C9.39786 3.65 9.19655 3.77155 9.09441 3.96568L7.77575 6.47639L4.46735 0.306103C4.34738 0.081991 4.09747 -0.0402376 3.84669 0.00263364C3.59591 0.0455049 3.40132 0.243898 3.36265 0.495137L0.165219 20.9632H0.154907L0.165219 20.975L0.249394 21.0164L15.6148 5.6332C15.771 5.47625 16.0019 5.41983 16.2129 5.48706C16.4239 5.55428 16.5795 5.73383 16.6162 5.9522L19.0456 20.9779L19.0693 20.9632L16.6191 5.80153L16.6191 5.80157ZM0.193277 20.9352L3.36414 0.639892C3.40277 0.388653 3.59781 0.19026 3.84838 0.147388C4.09894 0.104517 4.34887 0.226706 4.46904 0.450858L7.77708 6.62124L9.09574 4.11054C9.19786 3.91641 9.39919 3.79485 9.61856 3.79485C9.83793 3.79485 10.0392 3.91641 10.1414 4.11054L12.5044 8.60468L0.193138 20.9352H0.193277Z" fill="white" fill-opacity="0.2"/>
<path opacity="0.2" d="M10.4444 25.6141C9.90738 25.914 9.25341 25.914 8.71643 25.6141L0.185965 20.832L0.165283 20.9635L8.71641 25.7575C9.25339 26.0573 9.90736 26.0573 10.4443 25.7575L19.0693 20.9635L19.0472 20.8276L10.4444 25.6142V25.6141Z" fill="#A52714"/>
<path d="M16.5946 5.8049C16.5577 5.58723 16.4028 5.40831 16.1932 5.34129C15.9835 5.27426 15.754 5.32999 15.5982 5.48604L12.5415 8.55956L10.1382 3.96994C10.0364 3.77589 9.8358 3.65438 9.61722 3.65438C9.39864 3.65438 9.19803 3.77589 9.09624 3.96994L7.78201 6.47956L4.48536 0.311832C4.36579 0.0878188 4.11677 -0.0343899 3.86708 0.00850113C3.61739 0.0513922 3.42302 0.249627 3.38453 0.500806L0.198242 20.9599L8.71948 25.7518C9.25458 26.0514 9.90627 26.0514 10.4414 25.7518L19.0362 20.9599L16.5946 5.80486V5.8049Z" fill="url(#paint0_linear_222_35)"/>
</g>
<defs>
<linearGradient id="paint0_linear_222_35" x1="-0.459202" y1="4.4212" x2="23.0489" y2="16.8214" gradientUnits="userSpaceOnUse">
<stop stop-color="white" stop-opacity="0.1"/>
<stop offset="0.14" stop-color="white" stop-opacity="0.08"/>
<stop offset="0.61" stop-color="white" stop-opacity="0.02"/>
<stop offset="1" stop-color="white" stop-opacity="0"/>
</linearGradient>
<clipPath id="clip0_222_35">
<rect width="93" height="26.1748" fill="white"/>
</clipPath>
</defs>
</svg>
