<svg width="88" height="44" viewBox="0 0 88 44" fill="none" xmlns="http://www.w3.org/2000/svg">
<path d="M14.3919 32.7306L26.9004 20.2192H17.8052L9.8457 28.1815L14.3919 32.7306Z" fill="#39CEFD"/>
<path d="M3.02209 21.3578L17.8051 6.57471H26.9004L7.57116 25.9068L3.02209 21.3578Z" fill="#39CEFD"/>
<path d="M17.8051 36.1406H26.9004L18.941 28.1812L14.3919 32.7302L17.8051 36.1406Z" fill="#03569B"/>
<path d="M18.941 28.1812L14.3919 32.7302L21.1386 30.3931L18.941 28.1812Z" fill="url(#paint0_linear_222_36)"/>
<path d="M9.84521 28.1796L14.3944 23.6304L18.9439 28.1796L14.3944 32.7288L9.84521 28.1796Z" fill="#16B9FD"/>
<path d="M26.9004 20.2191L18.941 28.1814L26.9004 36.1437H17.8051L9.84285 28.1814L17.8051 20.2191H26.9004ZM17.8051 6.57471L3.02209 21.3578L7.57116 25.9068L26.9004 6.57471H17.8051Z" fill="url(#paint1_radial_222_36)"/>
<path d="M29.788 14.501H37.7374V16.0556H31.4014V20.7592H37.1214V22.2948H31.4014V28.2458H29.788V14.501ZM39.6609 14.501H41.2926V28.2466H39.6609V14.501ZM47.2619 28.5538C46.0846 28.5538 45.1802 28.2082 44.5486 27.5169C43.9384 26.8212 43.6334 25.8549 43.6334 24.618V18.4558H45.265V24.3687C45.265 25.2976 45.4762 25.982 45.8986 26.422C46.321 26.862 46.8906 27.082 47.6073 27.082C48.1578 27.082 48.6467 26.9349 49.074 26.6406C49.514 26.3463 49.8464 25.9625 50.0713 25.4892C50.3143 25.015 50.4358 24.5159 50.4358 23.9918V18.4624H52.0667V28.2524H50.512V26.8254H50.435C50.1661 27.3118 49.7374 27.7213 49.1488 28.0537C48.5601 28.3862 47.9329 28.5524 47.267 28.5524L47.2619 28.5538Z" fill="white"/>
<path d="M58.3469 28.4008C57.95 28.4008 57.5789 28.3368 57.2337 28.2087C56.9013 28.0806 56.6197 27.9078 56.3889 27.6902C56.1328 27.4472 55.9409 27.1656 55.8133 26.8454C55.6852 26.5257 55.6211 26.1353 55.6211 25.6743V19.9345H53.9125V18.4561H55.6211V15.6914H57.2528V18.4561H59.6332V19.9345H57.2528V25.2717C57.2528 25.8094 57.3555 26.2062 57.5608 26.4619C57.8038 26.7435 58.1558 26.8843 58.6168 26.8843C58.9884 26.8843 59.3467 26.7755 59.6919 26.5579V28.1515C59.4997 28.2409 59.3013 28.305 59.0964 28.3436C58.9043 28.3827 58.6549 28.4023 58.3484 28.4023L58.3469 28.4008Z" fill="white"/>
<path d="M65.2667 28.4008C64.8697 28.4008 64.4986 28.3368 64.1535 28.2087C63.821 28.0806 63.5394 27.9078 63.3087 27.6902C63.0525 27.4472 62.8606 27.1656 62.733 26.8454C62.6049 26.5257 62.5409 26.1353 62.5409 25.6743V19.9345H60.8322V18.4561H62.5409V15.6914H64.1725V18.4561H66.5529V19.9345H64.1725V25.2717C64.1725 25.8094 64.2752 26.2062 64.4805 26.4619C64.7235 26.7435 65.0755 26.8843 65.5365 26.8843C65.9081 26.8843 66.2665 26.7755 66.6116 26.5579V28.1515C66.4195 28.2409 66.221 28.305 66.0161 28.3436C65.824 28.3827 65.5747 28.4023 65.2682 28.4023L65.2667 28.4008Z" fill="white"/>
<path d="M72.4534 28.5537C71.5245 28.5537 70.6861 28.3298 69.9381 27.882C69.1959 27.4342 68.6137 26.8199 68.1913 26.0391C67.7816 25.2456 67.5767 24.3559 67.5767 23.3698C67.5767 22.4228 67.7686 21.5526 68.1524 20.7591C68.5494 19.9656 69.1062 19.332 69.8229 18.8583C70.5396 18.3841 71.3715 18.147 72.3185 18.147C73.2781 18.147 74.11 18.367 74.814 18.807C75.518 19.2294 76.0558 19.818 76.4273 20.5728C76.8111 21.3282 77.003 22.192 77.003 23.1644C77.003 23.3566 76.9834 23.5228 76.9443 23.6631H69.2077C69.2468 24.4052 69.4259 25.0325 69.7452 25.5448C70.0649 26.0567 70.4683 26.4405 70.9552 26.6962C71.4539 26.9523 71.9721 27.0804 72.5099 27.0804C73.7643 27.0804 74.7306 26.4918 75.4087 25.3146L76.7911 25.9863C76.3687 26.7798 75.7927 27.407 75.0633 27.868C74.3466 28.3286 73.4764 28.5588 72.4527 28.5588L72.4534 28.5537ZM75.2753 22.3145C75.2498 21.9048 75.1349 21.4954 74.9306 21.0862C74.7253 20.6765 74.3989 20.3308 73.9516 20.0492C73.5116 19.7676 72.9616 19.6268 72.3016 19.6268C71.534 19.6268 70.8814 19.8762 70.3436 20.3748C69.819 20.8613 69.4734 21.5076 69.3067 22.3138H75.2775L75.2753 22.3145ZM78.8935 18.4557H80.4482V20.0302H80.5252C80.7173 19.4924 81.0884 19.0509 81.6384 18.7058C82.1889 18.3474 82.7648 18.1682 83.3661 18.1682C83.8139 18.1682 84.1977 18.2323 84.5175 18.3604V20.1262C84.1078 19.9209 83.647 19.8182 83.1351 19.8182C82.6609 19.8182 82.2258 19.9527 81.8298 20.2216C81.4328 20.4905 81.115 20.8552 80.8765 21.3157C80.6467 21.7635 80.5318 22.2524 80.5318 22.7824V28.253H78.9001V18.463L78.8935 18.4557Z" fill="white"/>
<defs>
<linearGradient id="paint0_linear_222_36" x1="15.7195" y1="33.6081" x2="19.1075" y2="30.2201" gradientUnits="userSpaceOnUse">
<stop stop-color="#1A237E" stop-opacity="0.4"/>
<stop offset="1" stop-color="#1A237E" stop-opacity="0"/>
</linearGradient>
<radialGradient id="paint1_radial_222_36" cx="0" cy="0" r="1" gradientUnits="userSpaceOnUse" gradientTransform="translate(3.69292 8.59004) scale(36.174 36.174)">
<stop stop-color="white" stop-opacity="0.1"/>
<stop offset="1" stop-color="white" stop-opacity="0"/>
</radialGradient>
</defs>
</svg>
