<svg width="82" height="21" viewBox="0 0 82 21" fill="none" xmlns="http://www.w3.org/2000/svg">
<g clip-path="url(#clip0_222_37)">
<path d="M3.22138 0.00585938V16.8702H9.27234V19.7748H0V0.00585938H3.22138ZM20.6342 8.39047V6.61258H23.696V19.7821H20.6487V17.9969C20.2279 18.6554 19.6475 19.1676 18.8929 19.5334C18.1384 19.9211 17.3693 20.1041 16.6075 20.1041C15.6135 20.1041 14.7066 19.9211 13.8867 19.5553C13.0854 19.2051 12.3642 18.692 11.7682 18.0481C11.1773 17.4093 10.7098 16.6649 10.3897 15.8532C10.06 15.0051 9.89495 14.101 9.90356 13.19C9.90356 12.2682 10.0704 11.3829 10.3969 10.5561C10.7132 9.73371 11.181 8.97905 11.7754 8.33194C12.3659 7.68461 13.0821 7.16661 13.8795 6.81013C14.7066 6.44431 15.6208 6.26139 16.6002 6.26139C17.3621 6.26139 18.1239 6.45162 18.8784 6.82476C19.633 7.20521 20.2134 7.71736 20.6197 8.37584L20.6342 8.39047ZM20.3585 14.807C20.5497 14.2922 20.6479 13.7471 20.6487 13.1974C20.6487 12.6267 20.5472 12.0999 20.3585 11.5877C20.1848 11.095 19.9188 10.6404 19.5749 10.2488C19.2319 9.87215 18.8174 9.56864 18.356 9.35624C17.86 9.12672 17.3202 9.00936 16.7744 9.01237C16.1939 9.01237 15.6716 9.13675 15.2072 9.36355C14.7523 9.57662 14.3432 9.87736 14.0028 10.2488C13.6599 10.6385 13.3983 11.0939 13.2338 11.5877C13.0538 12.1049 12.963 12.6493 12.9653 13.1974C12.9653 13.7607 13.0524 14.2948 13.2338 14.807C13.4079 15.3191 13.6691 15.7581 14.0028 16.1239C14.3403 16.5062 14.7496 16.8171 15.2072 17.0385C15.6716 17.258 16.1939 17.375 16.7744 17.375C17.3548 17.375 17.8844 17.2653 18.356 17.0385C18.8188 16.8219 19.2334 16.5133 19.5749 16.1312C19.9164 15.7462 20.1823 15.2993 20.3585 14.8143V14.807ZM26.1048 19.7821V6.61258H34.3904V9.64158H29.152V19.7748H26.1048V19.7821ZM45.4548 8.39047V6.61258H48.502V19.7821H45.4548V17.9969C45.0485 18.6554 44.4608 19.1676 43.7135 19.5334C42.9517 19.9211 42.1899 20.1041 41.4208 20.1041C40.4268 20.1041 39.5199 19.9211 38.7001 19.5553C37.8987 19.2051 37.1775 18.692 36.5815 18.0481C35.9906 17.4093 35.5231 16.6649 35.203 15.8532C34.8758 15.0046 34.7132 14.1005 34.7241 13.19C34.7241 12.2682 34.8837 11.3829 35.2102 10.5561C35.5265 9.73371 35.9943 8.97905 36.5887 8.33194C37.1792 7.68461 37.8954 7.16661 38.6928 6.81013C39.5199 6.44431 40.4341 6.26139 41.4136 6.26139C42.1754 6.26139 42.9372 6.45162 43.6917 6.82476C44.4463 7.20521 45.034 7.71736 45.433 8.37584L45.4548 8.39047ZM45.1791 14.807C45.3653 14.2913 45.4586 13.7462 45.4548 13.1974C45.4548 12.6267 45.3605 12.0999 45.1791 11.5877C45.0075 11.0955 44.744 10.641 44.4028 10.2488C44.0554 9.87056 43.6359 9.56695 43.1693 9.35624C42.6978 9.13675 42.1681 9.01237 41.5949 9.01237C41.0145 9.01237 40.4921 9.13675 40.0205 9.36355C39.5657 9.57662 39.1565 9.87736 38.8161 10.2488C38.4732 10.6385 38.2116 11.0939 38.0471 11.5877C37.8696 12.1053 37.7812 12.6497 37.7859 13.1974C37.7859 13.7607 37.8729 14.2948 38.0471 14.807C38.2285 15.3191 38.4824 15.7581 38.8161 16.1239C39.1536 16.5062 39.563 16.8171 40.0205 17.0385C40.4921 17.258 41.0145 17.375 41.5949 17.375C42.1754 17.375 42.6978 17.2653 43.1766 17.0385C43.6445 16.8236 44.0642 16.5149 44.41 16.1312C44.7489 15.7456 45.0123 15.2987 45.1863 14.8143L45.1791 14.807ZM60.7491 6.61258H63.8471L58.8409 19.7821H54.9956L49.9894 6.61258H53.0729L56.9182 16.6946L60.7491 6.6199V6.61258ZM70.5003 6.27603C74.6576 6.27603 77.4944 9.99277 76.9575 14.3387H66.8218C66.8218 15.4654 67.9681 17.6604 70.6671 17.6604C72.9889 17.6604 74.5488 15.6118 74.5488 15.6118L76.6093 17.2214C74.7592 19.1968 73.25 20.1114 70.8775 20.1114C66.6549 20.1114 63.7963 17.4043 63.7963 13.1827C63.7963 9.35624 66.7565 6.26139 70.493 6.26139L70.5003 6.27603ZM66.8363 12.056H74.1642C74.1352 11.7999 73.7289 8.71971 70.4785 8.71971C67.2136 8.71971 66.8653 11.8072 66.8363 12.056ZM78.9528 19.7602V0.00585938H82V19.7748H78.9528V19.7602Z" fill="#FF2D20"/>
</g>
<defs>
<clipPath id="clip0_222_37">
<rect width="82" height="20.6395" fill="white"/>
</clipPath>
</defs>
</svg>
