<svg width="88" height="88" viewBox="0 0 88 88" fill="none" xmlns="http://www.w3.org/2000/svg">
<path d="M44 51.8376C48.3286 51.8376 51.8375 48.3286 51.8375 44.0001C51.8375 39.6716 48.3286 36.1626 44 36.1626C39.6715 36.1626 36.1625 39.6716 36.1625 44.0001C36.1625 48.3286 39.6715 51.8376 44 51.8376Z" fill="#61DAFB"/>
<path d="M73.7688 31.0751C72.2563 30.5251 70.675 29.9751 69.025 29.4938C69.4375 27.8438 69.7813 26.1938 70.0563 24.6126C71.5 15.5376 69.9188 9.14385 65.5188 6.66885C64.2125 5.9126 62.7688 5.56885 61.1188 5.56885C56.3063 5.56885 50.1875 9.14385 44 15.1251C37.8125 9.14385 31.6938 5.56885 26.8813 5.56885C25.2313 5.56885 23.7875 5.9126 22.4813 6.66885C18.0813 9.2126 16.5 15.6063 17.9438 24.6126C18.2188 26.1938 18.5625 27.8438 18.975 29.4938C17.325 29.9751 15.7438 30.4563 14.2313 31.0751C5.63753 34.3751 0.962524 38.9126 0.962524 44.0001C0.962524 49.0876 5.70628 53.6251 14.2313 56.9251C15.7438 57.4751 17.325 58.0251 18.975 58.5063C18.5625 60.1563 18.2188 61.8063 17.9438 63.3876C16.5 72.4626 18.0813 78.8564 22.4813 81.3314C23.7875 82.0876 25.2313 82.4313 26.8813 82.4313C31.7625 82.4313 37.8813 78.8563 44 72.8751C50.1875 78.8563 56.3063 82.4313 61.1188 82.4313C62.7688 82.4313 64.2125 82.0876 65.5188 81.3314C69.9188 78.7876 71.5 72.3938 70.0563 63.3876C69.7813 61.8063 69.4375 60.1563 69.025 58.5063C70.675 58.0251 72.2563 57.5439 73.7688 56.9251C82.3625 53.6251 87.0375 49.0876 87.0375 44.0001C87.0375 38.9126 82.3625 34.3751 73.7688 31.0751ZM63.5938 10.1063C66.4125 11.7563 67.375 16.8438 66.2063 24.0626C66 25.5063 65.6563 27.0188 65.2438 28.6001C61.6688 27.7751 57.8875 27.2251 53.9 26.8813C51.5625 23.5813 49.1563 20.6251 46.75 17.9438C51.8375 12.9251 56.9938 9.4876 61.1875 9.4876C62.0813 9.4876 62.9063 9.69385 63.5938 10.1063ZM55.8938 50.8751C54.6563 53.0751 53.2125 55.2751 51.7 57.4751C49.1563 57.6813 46.6125 57.7501 44 57.7501C41.3188 57.7501 38.775 57.6813 36.3 57.4751C34.7875 55.2751 33.4125 53.0751 32.175 50.8751C30.8688 48.6063 29.6313 46.2688 28.5313 44.0001C29.6313 41.7313 30.8688 39.3938 32.175 37.1251C33.4125 34.9251 34.8563 32.7251 36.3688 30.5251C38.9125 30.3188 41.4563 30.2501 44.0688 30.2501C46.75 30.2501 49.2938 30.3188 51.7688 30.5251C53.2813 32.7251 54.6563 34.9251 55.8938 37.1251C57.2 39.3938 58.4375 41.7313 59.5375 44.0001C58.3688 46.2688 57.2 48.5376 55.8938 50.8751ZM61.6 48.6063C62.6313 51.0126 63.4563 53.3501 64.2125 55.6876C61.875 56.2376 59.4 56.6501 56.7875 56.9938C57.6125 55.6876 58.5063 54.3126 59.2625 52.8688C60.0875 51.4251 60.8438 49.9813 61.6 48.6063ZM44 67.2376C42.35 65.4501 40.7688 63.5251 39.2563 61.5313C40.8375 61.6001 42.4188 61.6688 44 61.6688C45.5813 61.6688 47.1625 61.6001 48.7438 61.5313C47.2313 63.5251 45.65 65.4501 44 67.2376ZM31.2125 56.9251C28.6 56.5814 26.125 56.1688 23.7875 55.6188C24.5438 53.3501 25.3688 50.9438 26.4 48.5376C27.1563 49.9126 27.9125 51.3563 28.7375 52.7313C29.5625 54.2438 30.3875 55.5501 31.2125 56.9251ZM26.4 39.3938C25.3688 36.9876 24.5438 34.6501 23.7875 32.3126C26.125 31.7626 28.6 31.3501 31.2125 31.0063C30.3875 32.3126 29.4938 33.6876 28.7375 35.1313C27.9125 36.5751 27.1563 38.0188 26.4 39.3938ZM44 20.7626C45.65 22.5501 47.2313 24.4751 48.7438 26.4688C47.1625 26.4001 45.5813 26.3313 44 26.3313C42.4188 26.3313 40.8375 26.4001 39.2563 26.4688C40.7688 24.4751 42.35 22.5501 44 20.7626ZM59.2625 35.2001L56.7875 31.0751C59.4 31.4188 61.875 31.8313 64.2125 32.3813C63.4563 34.6501 62.6313 37.0563 61.6 39.4626C60.8438 38.0188 60.0875 36.5751 59.2625 35.2001ZM21.7938 24.0626C20.625 16.8438 21.5875 11.7563 24.4063 10.1063C25.0938 9.69385 25.9188 9.4876 26.8125 9.4876C30.9375 9.4876 36.0938 12.8563 41.25 17.9438C38.8438 20.5563 36.4375 23.5813 34.1 26.8813C30.1125 27.2251 26.3313 27.8438 22.7563 28.6001C22.3438 27.0188 22.0688 25.5063 21.7938 24.0626ZM4.81252 44.0001C4.81252 40.7688 8.73128 37.3313 15.6063 34.7876C16.9813 34.2376 18.4938 33.7563 20.0063 33.3438C21.1063 36.7813 22.4813 40.4251 24.1313 44.0688C22.4813 47.7126 21.0375 51.2876 20.0063 54.7251C10.5188 51.9751 4.81252 47.8501 4.81252 44.0001ZM24.4063 77.8939C21.5875 76.2439 20.625 71.1563 21.7938 63.9376C22 62.4938 22.3438 60.9813 22.7563 59.4001C26.3313 60.2251 30.1125 60.7751 34.1 61.1188C36.4375 64.4188 38.8438 67.3751 41.25 70.0563C36.1625 75.0751 31.0063 78.5126 26.8125 78.5126C25.9188 78.5126 25.0938 78.3064 24.4063 77.8939ZM66.2063 63.9376C67.375 71.1563 66.4125 76.2439 63.5938 77.8939C62.9063 78.3064 62.0813 78.5126 61.1875 78.5126C57.0625 78.5126 51.9063 75.1438 46.75 70.0563C49.1563 67.4438 51.5625 64.4188 53.9 61.1188C57.8875 60.7751 61.6688 60.1563 65.2438 59.4001C65.6563 60.9813 65.9313 62.4938 66.2063 63.9376ZM72.3938 53.2126C71.0188 53.7626 69.5063 54.2438 67.9938 54.6563C66.8938 51.2188 65.5188 47.5751 63.8688 43.9313C65.5188 40.2876 66.9625 36.7126 67.9938 33.2751C77.4813 36.0251 83.1875 40.1501 83.1875 44.0001C83.1875 47.2313 79.2 50.6688 72.3938 53.2126Z" fill="#61DAFB"/>
</svg>
