<svg width="32" height="32" viewBox="0 0 32 32" fill="none" xmlns="http://www.w3.org/2000/svg">
<path fill-rule="evenodd" clip-rule="evenodd" d="M19.7056 4.88159C19.905 4.94795 20.0894 5.05294 20.2483 5.19058C20.4071 5.32822 20.5373 5.49581 20.6313 5.68377C20.7254 5.87172 20.7815 6.07637 20.7964 6.28602C20.8114 6.49566 20.7848 6.7062 20.7184 6.90559L14.3184 26.1056C14.1843 26.5083 13.8957 26.8412 13.5162 27.0312C13.1366 27.2211 12.6971 27.2525 12.2944 27.1184C11.8917 26.9843 11.5588 26.6957 11.3688 26.3161C11.1789 25.9366 11.1475 25.4971 11.2816 25.0944L17.6816 5.89439C17.748 5.69497 17.853 5.51057 17.9906 5.35173C18.1282 5.19289 18.2958 5.06273 18.4838 4.96867C18.6717 4.87462 18.8764 4.81852 19.086 4.80358C19.2957 4.78864 19.5062 4.81515 19.7056 4.88159V4.88159ZM9.1312 10.0688C9.43115 10.3688 9.59966 10.7757 9.59966 11.2C9.59966 11.6243 9.43115 12.0311 9.1312 12.3312L5.4624 16L9.1312 19.6688C9.28402 19.8164 9.40591 19.9929 9.48976 20.1881C9.57362 20.3833 9.61775 20.5933 9.6196 20.8057C9.62145 21.0182 9.58096 21.2289 9.50052 21.4255C9.42007 21.6222 9.30126 21.8008 9.15103 21.951C9.0008 22.1012 8.82216 22.2201 8.62553 22.3005C8.42889 22.381 8.2182 22.4214 8.00576 22.4196C7.79331 22.4177 7.58336 22.3736 7.38815 22.2898C7.19295 22.2059 7.0164 22.084 6.8688 21.9312L2.0688 17.1312C1.76885 16.8311 1.60034 16.4243 1.60034 16C1.60034 15.5757 1.76885 15.1688 2.0688 14.8688L6.8688 10.0688C7.16884 9.76884 7.57574 9.60033 8 9.60033C8.42426 9.60033 8.83116 9.76884 9.1312 10.0688V10.0688ZM22.8688 10.0688C23.1688 9.76884 23.5757 9.60033 24 9.60033C24.4243 9.60033 24.8312 9.76884 25.1312 10.0688L29.9312 14.8688C30.2312 15.1688 30.3997 15.5757 30.3997 16C30.3997 16.4243 30.2312 16.8311 29.9312 17.1312L25.1312 21.9312C24.9836 22.084 24.8071 22.2059 24.6118 22.2898C24.4166 22.3736 24.2067 22.4177 23.9942 22.4196C23.7818 22.4214 23.5711 22.381 23.3745 22.3005C23.1778 22.2201 22.9992 22.1012 22.849 21.951C22.6987 21.8008 22.5799 21.6222 22.4995 21.4255C22.419 21.2289 22.3786 21.0182 22.3804 20.8057C22.3822 20.5933 22.4264 20.3833 22.5102 20.1881C22.5941 19.9929 22.716 19.8164 22.8688 19.6688L26.5376 16L22.8688 12.3312C22.5688 12.0311 22.4003 11.6243 22.4003 11.2C22.4003 10.7757 22.5688 10.3688 22.8688 10.0688V10.0688Z" fill="#8B50E1"/>
</svg>
