<svg width="47" height="47" viewBox="0 0 47 47" fill="none" xmlns="http://www.w3.org/2000/svg">
<path d="M39.1666 35.25H35.25V18.1146L23.5 25.4584L11.75 18.1146V35.25H7.83329V11.75H10.1833L23.5 20.073L36.8166 11.75H39.1666M39.1666 7.83337H7.83329C5.65954 7.83337 3.91663 9.57629 3.91663 11.75V35.25C3.91663 36.2888 4.32927 37.285 5.06379 38.0195C5.79831 38.7541 6.79453 39.1667 7.83329 39.1667H39.1666C40.2054 39.1667 41.2016 38.7541 41.9361 38.0195C42.6706 37.285 43.0833 36.2888 43.0833 35.25V11.75C43.0833 10.7113 42.6706 9.71506 41.9361 8.98054C41.2016 8.24602 40.2054 7.83337 39.1666 7.83337Z" fill="white"/>
</svg>
