<svg width="38" height="38" viewBox="0 0 38 38" fill="none" xmlns="http://www.w3.org/2000/svg">
<path fill-rule="evenodd" clip-rule="evenodd" d="M11.8196 1.68787C13.6769 1.60237 14.269 1.58337 19 1.58337C23.731 1.58337 24.3232 1.60396 26.1789 1.68787C28.0345 1.77179 29.3012 2.06787 30.4095 2.49696C31.5701 2.93554 32.623 3.62112 33.4939 4.50779C34.3805 5.37704 35.0645 6.42837 35.5015 7.59054C35.9322 8.69887 36.2267 9.96554 36.3122 11.818C36.3977 13.6785 36.4167 14.2706 36.4167 19C36.4167 23.731 36.3961 24.3232 36.3122 26.1805C36.2283 28.033 35.9322 29.2996 35.5015 30.408C35.0645 31.5703 34.3794 32.6234 33.4939 33.4939C32.623 34.3805 31.5701 35.0645 30.4095 35.5015C29.3012 35.9322 28.0345 36.2267 26.182 36.3122C24.3232 36.3977 23.731 36.4167 19 36.4167C14.269 36.4167 13.6769 36.3961 11.8196 36.3122C9.96712 36.2283 8.70046 35.9322 7.59212 35.5015C6.42983 35.0645 5.37676 34.3794 4.50621 33.4939C3.62014 32.6241 2.93446 31.5715 2.49696 30.4095C2.06787 29.3012 1.77337 28.0345 1.68787 26.182C1.60237 24.3216 1.58337 23.7295 1.58337 19C1.58337 14.269 1.60396 13.6769 1.68787 11.8212C1.77179 9.96554 2.06787 8.69887 2.49696 7.59054C2.9351 6.4285 3.62131 5.37595 4.50779 4.50621C5.3771 3.62033 6.42912 2.93466 7.59054 2.49696C8.69887 2.06787 9.96554 1.77337 11.818 1.68787H11.8196ZM26.038 4.82287C24.2013 4.73896 23.6503 4.72154 19 4.72154C14.3498 4.72154 13.7988 4.73896 11.9621 4.82287C10.2632 4.90046 9.34171 5.18387 8.72737 5.42296C7.91512 5.73962 7.33404 6.11487 6.72446 6.72446C6.14661 7.28662 5.70191 7.97099 5.42296 8.72737C5.18387 9.34171 4.90046 10.2632 4.82287 11.9621C4.73896 13.7988 4.72154 14.3498 4.72154 19C4.72154 23.6503 4.73896 24.2013 4.82287 26.038C4.90046 27.7369 5.18387 28.6584 5.42296 29.2727C5.70162 30.028 6.14654 30.7135 6.72446 31.2756C7.28654 31.8535 7.97212 32.2985 8.72737 32.5771C9.34171 32.8162 10.2632 33.0996 11.9621 33.1772C13.7988 33.2611 14.3482 33.2785 19 33.2785C23.6519 33.2785 24.2013 33.2611 26.038 33.1772C27.7369 33.0996 28.6584 32.8162 29.2727 32.5771C30.085 32.2605 30.666 31.8852 31.2756 31.2756C31.8535 30.7135 32.2985 30.028 32.5771 29.2727C32.8162 28.6584 33.0996 27.7369 33.1772 26.038C33.2611 24.2013 33.2785 23.6503 33.2785 19C33.2785 14.3498 33.2611 13.7988 33.1772 11.9621C33.0996 10.2632 32.8162 9.34171 32.5771 8.72737C32.2605 7.91512 31.8852 7.33404 31.2756 6.72446C30.7134 6.14665 30.0291 5.70196 29.2727 5.42296C28.6584 5.18387 27.7369 4.90046 26.038 4.82287ZM16.7755 24.3691C18.0178 24.8863 19.4012 24.9561 20.6893 24.5666C21.9775 24.1771 23.0904 23.3525 23.8381 22.2336C24.5858 21.1147 24.9218 19.7709 24.7888 18.4318C24.6558 17.0927 24.062 15.8412 23.1088 14.8913C22.5012 14.284 21.7665 13.8191 20.9576 13.5299C20.1487 13.2406 19.2857 13.1344 18.4308 13.2187C17.5759 13.303 16.7504 13.5758 16.0136 14.0175C15.2768 14.4592 14.6471 15.0587 14.1698 15.773C13.6925 16.4872 13.3795 17.2984 13.2534 18.1481C13.1272 18.9979 13.191 19.865 13.4402 20.6871C13.6894 21.5092 14.1178 22.2658 14.6945 22.9025C15.2712 23.5392 15.9819 24.0401 16.7755 24.3691ZM12.6699 12.6699C13.5012 11.8386 14.488 11.1792 15.5742 10.7293C16.6603 10.2794 17.8244 10.0478 19 10.0478C20.1757 10.0478 21.3398 10.2794 22.4259 10.7293C23.512 11.1792 24.4989 11.8386 25.3302 12.6699C26.1615 13.5012 26.8209 14.488 27.2708 15.5742C27.7207 16.6603 27.9522 17.8244 27.9522 19C27.9522 20.1757 27.7207 21.3398 27.2708 22.4259C26.8209 23.512 26.1615 24.4989 25.3302 25.3302C23.6513 27.0091 21.3743 27.9522 19 27.9522C16.6258 27.9522 14.3487 27.0091 12.6699 25.3302C10.991 23.6513 10.0478 21.3743 10.0478 19C10.0478 16.6258 10.991 14.3487 12.6699 12.6699ZM29.9377 11.381C30.1437 11.1867 30.3086 10.953 30.4227 10.6938C30.5368 10.4346 30.5977 10.1552 30.6018 9.87201C30.6059 9.58885 30.5532 9.30774 30.4467 9.04532C30.3403 8.78291 30.1822 8.54452 29.982 8.34427C29.7817 8.14402 29.5433 7.98599 29.2809 7.87953C29.0185 7.77306 28.7374 7.72034 28.4542 7.72446C28.1711 7.72859 27.8916 7.78949 27.6324 7.90356C27.3732 8.01763 27.1395 8.18254 26.9452 8.38854C26.5673 8.78917 26.3604 9.32132 26.3684 9.87201C26.3764 10.4227 26.5988 10.9486 26.9882 11.338C27.3776 11.7275 27.9035 11.9498 28.4542 11.9578C29.0049 11.9659 29.5371 11.759 29.9377 11.381Z" fill="white"/>
</svg>
