<svg width="38" height="38" viewBox="0 0 38 38" fill="none" xmlns="http://www.w3.org/2000/svg">
<path fill-rule="evenodd" clip-rule="evenodd" d="M1.58331 4.49354C1.58331 3.72172 1.88992 2.98151 2.43568 2.43575C2.98144 1.88998 3.72166 1.58338 4.49348 1.58338H33.5033C33.8858 1.58275 34.2647 1.65758 34.6182 1.80357C34.9717 1.94956 35.293 2.16384 35.5636 2.43416C35.8342 2.70448 36.0489 3.02552 36.1952 3.37889C36.3416 3.73227 36.4169 4.11105 36.4166 4.49354V33.5034C36.4171 33.8859 36.342 34.2648 36.1959 34.6184C36.0497 34.9719 35.8353 35.2932 35.5648 35.5638C35.2944 35.8344 34.9733 36.049 34.6198 36.1953C34.2663 36.3417 33.8875 36.4169 33.5049 36.4167H4.49348C4.11118 36.4167 3.73262 36.3414 3.37944 36.195C3.02626 36.0487 2.70538 35.8342 2.43512 35.5638C2.16487 35.2934 1.95054 34.9724 1.80438 34.6191C1.65823 34.2659 1.58311 33.8873 1.58331 33.505V4.49354ZM15.371 14.8644H20.0877V17.233C20.7686 15.8714 22.5102 14.6459 25.1275 14.6459C30.1451 14.6459 31.3341 17.3581 31.3341 22.3345V31.5527H26.2564V23.4682C26.2564 20.634 25.5756 19.0349 23.8466 19.0349C21.4478 19.0349 20.4503 20.7591 20.4503 23.4682V31.5527H15.371V14.8644ZM6.66265 31.3358H11.742V14.6459H6.66265V31.3342V31.3358ZM12.4687 9.20238C12.4783 9.63728 12.4009 10.0697 12.2411 10.4743C12.0813 10.8789 11.8423 11.2475 11.5381 11.5584C11.2339 11.8694 10.8707 12.1165 10.4697 12.2851C10.0687 12.4538 9.63811 12.5407 9.2031 12.5407C8.7681 12.5407 8.33748 12.4538 7.93651 12.2851C7.53554 12.1165 7.1723 11.8694 6.86811 11.5584C6.56392 11.2475 6.32491 10.8789 6.1651 10.4743C6.00529 10.0697 5.9279 9.63728 5.93748 9.20238C5.95628 8.34873 6.30859 7.53638 6.91896 6.9393C7.52934 6.34221 8.34925 6.00787 9.2031 6.00787C10.057 6.00787 10.8769 6.34221 11.4872 6.9393C12.0976 7.53638 12.4499 8.34873 12.4687 9.20238Z" fill="white"/>
</svg>
